<?xml version="1.0" encoding="utf-8"?>
<!-- Generator: Adobe Illustrator 24.0.1, SVG Export Plug-In . SVG Version: 6.00 Build 0)  -->
<svg version="1.1" id="Réteg_1" xmlns="http://www.w3.org/2000/svg" xmlns:xlink="http://www.w3.org/1999/xlink" x="0px" y="0px"
	 viewBox="0 0 512 512" style="enable-background:new 0 0 512 512;" xml:space="preserve">
<style type="text/css">
	.st0{fill:#FFFFFF;}
	.st1{fill:#54205B;}
	.st2{fill:#FFDA00;}
</style>
<circle class="st0" cx="256" cy="256" r="251.6"/>
<path class="st1" d="M269.2,112.4c73.6,0.4,133.4,61.4,133,135.8c-0.3,50.6-29.7,96.3-73.8,118.6l4.3,8.4
	c46.9-23.4,79.6-70.2,79.1-119.2c-0.1-48.2-13.8-81.8-40.8-109.6c-31.6-32.5-71-46.1-115.7-42.9c-18.2,1.3-36.1,6.5-52.5,14.8
	l4.4,8.9C225.7,117.6,246.8,112.2,269.2,112.4z"/>
<path class="st1" d="M267.4,184.3c17.3,0,32.5,5.2,45.1,18.2c12.3,12.7,18.8,28.5,19.1,44.8c0.4,23.5-14.9,44.7-35.8,55l25.9,51.3
	c39.3-20,66.6-60.6,65.8-107.1c0.6-66.4-54.7-119.9-120.1-120.1c-19.1,0-37.6,4.9-54,13.5l25.9,51
	C247.9,186.8,257.3,184.3,267.4,184.3z"/>
<path class="st1" d="M310.9,246.4c-0.1-24.1-19.1-42.9-43.2-42.7c-7,0-13.6,1.8-19.5,4.7l38.9,76.9
	C301.3,278.2,311,263.5,310.9,246.4z"/>
<g>
	<path class="st2" d="M168.5,315.8l-24.8,24.8c-6.5,6.5-6.5,17,0,23.4c3.2,3.2,7.5,4.8,11.7,4.8c4.2,0,8.5-1.6,11.7-4.8l24.8-24.8
		c-4.5-3.2-8.8-6.7-12.7-10.7C175.2,324.5,171.7,320.3,168.5,315.8z"/>
	<path class="st2" d="M168.5,204.4c3.2-4.5,6.7-8.8,10.7-12.7c4-3.9,8.2-7.5,12.7-10.7l-24.8-24.8c-6.5-6.5-17-6.5-23.4,0
		s-6.5,17,0,23.4L168.5,204.4z"/>
	<path class="st2" d="M150.8,260.1c0-5.6,0.5-11.1,1.4-16.6h-35.1c-9.2,0-16.6,7.4-16.6,16.6c0,9.2,7.4,16.6,16.6,16.6h35.1
		C151.3,271.2,150.8,265.7,150.8,260.1z"/>
	<path class="st2" d="M231,355.4v35.1c0,9.2,7.4,16.6,16.6,16.6s16.6-7.4,16.6-16.6v-35.1c-5.4,0.9-11,1.4-16.6,1.4
		C242,356.8,236.5,356.3,231,355.4z"/>
	<path class="st2" d="M181.5,217.4c-5.1,7.9-8.8,16.7-10.8,26.1c-1.1,5.3-1.7,10.9-1.7,16.6c0,5.7,0.6,11.2,1.7,16.6
		c2,9.5,5.8,18.3,10.8,26.1c6.1,9.4,14.1,17.4,23.4,23.4c7.9,5.1,16.7,8.8,26.1,10.8c5.3,1.1,10.9,1.7,16.6,1.7s11.2-0.6,16.6-1.7
		c6.8-1.5,13.3-3.8,19.3-6.9l-71.1-140.5c-2.6,1.3-5.1,2.7-7.5,4.3C195.5,200,187.5,208,181.5,217.4z"/>
</g>
</svg>
